<svg width="61" height="60" viewBox="0 0 61 60" fill="none" xmlns="http://www.w3.org/2000/svg">
<path d="M30.5008 45.7255C39.1858 45.7255 46.2263 38.6849 46.2263 30C46.2263 21.3151 39.1858 14.2746 30.5008 14.2746C21.8159 14.2746 14.7754 21.3151 14.7754 30C14.7754 38.6849 21.8159 45.7255 30.5008 45.7255Z" stroke="#E8D28C" stroke-width="1.5" stroke-linecap="round" stroke-linejoin="round"/>
<path d="M30.4997 18.2059L32.0723 26.0686L39.935 30L32.0723 33.9313L30.4997 41.7941L28.9272 33.9313L21.0645 30L28.9272 26.0686L30.4997 18.2059Z" stroke="#E8D28C" stroke-width="1.5" stroke-linecap="round" stroke-linejoin="round"/>
<path d="M30.5 7.98438V12.702" stroke="#E8D28C" stroke-width="1.5" stroke-linecap="round" stroke-linejoin="round"/>
<path d="M30.5 52.0156V47.298" stroke="#E8D28C" stroke-width="1.5" stroke-linecap="round" stroke-linejoin="round"/>
<path d="M8.48438 30H13.202" stroke="#E8D28C" stroke-width="1.5" stroke-linecap="round" stroke-linejoin="round"/>
<path d="M52.5165 30H47.7988" stroke="#E8D28C" stroke-width="1.5" stroke-linecap="round" stroke-linejoin="round"/>
<path d="M13.5957 13.0951L17.1339 16.6334" stroke="#E8D28C" stroke-width="1.5" stroke-linecap="round" stroke-linejoin="round"/>
<path d="M47.4054 46.9049L43.8672 43.3666" stroke="#E8D28C" stroke-width="1.5" stroke-linecap="round" stroke-linejoin="round"/>
<path d="M47.4054 13.0951L43.8672 16.6334" stroke="#E8D28C" stroke-width="1.5" stroke-linecap="round" stroke-linejoin="round"/>
<path d="M13.5957 46.9049L17.1339 43.3666" stroke="#E8D28C" stroke-width="1.5" stroke-linecap="round" stroke-linejoin="round"/>
</svg>
