<svg width="54" height="53" viewBox="0 0 54 53" fill="none" xmlns="http://www.w3.org/2000/svg">
<path d="M27 5C39.7025 5 50 15.2975 50 28C50 40.7025 39.7025 51 27 51C14.2975 51 4 40.7025 4 28C4 15.2975 14.2975 5 27 5Z" fill="black" fill-opacity="0.4"/>
<path d="M27 5C39.7025 5 50 15.2975 50 28C50 40.7025 39.7025 51 27 51C14.2975 51 4 40.7025 4 28C4 15.2975 14.2975 5 27 5Z" stroke="url(#paint0_linear_1765_34491)" stroke-width="2"/>
<path d="M18.4004 8.28223C21.2147 -0.379304 33.4679 -0.379305 36.2822 8.28223C37.2731 11.3316 40.115 13.3963 43.3213 13.3965C52.4285 13.3965 56.2155 25.0502 48.8477 30.4033C46.2536 32.288 45.1683 35.6292 46.1592 38.6787C48.973 47.34 39.0592 54.5425 31.6914 49.1895C29.0974 47.3049 25.5852 47.3048 22.9912 49.1895C15.6234 54.5425 5.7097 47.34 8.52344 38.6787C9.51428 35.6292 8.42903 32.288 5.83496 30.4033C-1.53274 25.0501 2.25413 13.3965 11.3613 13.3965C14.5677 13.3964 17.4095 11.3316 18.4004 8.28223Z" stroke="url(#paint1_linear_1765_34491)" stroke-width="2"/>
<path d="M22.0654 10.3344L22.6292 11.7638L24.0586 12.3276L22.6292 12.8913L22.0654 14.3207L21.5017 12.8913L20.0723 12.3276L21.5017 11.7638L22.0654 10.3344Z" fill="url(#paint2_linear_1765_34491)"/>
<path d="M17.9478 14.7923L20.0113 20.0243L25.2433 22.0878L20.0113 24.1513L17.9478 29.3833L15.8844 24.1513L10.6523 22.0878L15.8844 20.0243L17.9478 14.7923Z" fill="url(#paint3_linear_1765_34491)"/>
<path d="M12.0361 30.062L12.6076 31.511L14.0566 32.0825L12.6076 32.6539L12.0361 34.103L11.4646 32.6539L10.0156 32.0825L11.4646 31.511L12.0361 30.062Z" fill="url(#paint4_linear_1765_34491)"/>
<path d="M18.989 32.7533L20.7581 37.2389L25.2437 39.008L20.7581 40.7771L18.989 45.2626L17.2199 40.7771L12.7344 39.008L17.2199 37.2389L18.989 32.7533Z" fill="url(#paint5_linear_1765_34491)"/>
<path d="M26.4971 29.8553L27.5083 32.4193L30.0723 33.4305L27.5083 34.4417L26.4971 37.0057L25.4859 34.4417L22.9219 33.4305L25.4859 32.4193L26.4971 29.8553Z" fill="url(#paint6_linear_1765_34491)"/>
<path d="M30.0723 40.5986L30.512 41.7135L31.627 42.1533L30.512 42.593L30.0723 43.708L29.6325 42.593L28.5176 42.1533L29.6325 41.7135L30.0723 40.5986Z" fill="url(#paint7_linear_1765_34491)"/>
<path d="M38.2584 30.062L39.901 34.2267L44.0657 35.8692L39.901 37.5117L38.2584 41.6765L36.6159 37.5117L32.4512 35.8692L36.6159 34.2267L38.2584 30.062Z" fill="url(#paint8_linear_1765_34491)"/>
<path d="M32.4506 20.4265L33.8132 23.8815L37.2683 25.2442L33.8132 26.6069L32.4506 30.062L31.0879 26.6069L27.6328 25.2442L31.0879 23.8815L32.4506 20.4265Z" fill="url(#paint9_linear_1765_34491)"/>
<path d="M29.2955 12.3276L30.4409 15.2317L33.345 16.377L30.4409 17.5224L29.2955 20.4265L28.1502 17.5224L25.2461 16.377L28.1502 15.2317L29.2955 12.3276Z" fill="url(#paint10_linear_1765_34491)"/>
<path d="M37.8229 15.7795L38.5213 17.5504L40.2922 18.2488L38.5213 18.9473L37.8229 20.7182L37.1244 18.9473L35.3535 18.2488L37.1244 17.5504L37.8229 15.7795Z" fill="url(#paint11_linear_1765_34491)"/>
<path d="M40.7076 22.7882L41.4061 24.5592L43.177 25.2576L41.4061 25.956L40.7076 27.727L40.0092 25.956L38.2383 25.2576L40.0092 24.5592L40.7076 22.7882Z" fill="url(#paint12_linear_1765_34491)"/>
<defs>
<linearGradient id="paint0_linear_1765_34491" x1="27" y1="6" x2="27" y2="50" gradientUnits="userSpaceOnUse">
<stop stop-color="white"/>
<stop offset="1" stop-color="#997F37"/>
</linearGradient>
<linearGradient id="paint1_linear_1765_34491" x1="27.3414" y1="-16" x2="27.3414" y2="71.9797" gradientUnits="userSpaceOnUse">
<stop stop-color="white"/>
<stop offset="1" stop-color="#997F37"/>
</linearGradient>
<linearGradient id="paint2_linear_1765_34491" x1="22.0654" y1="10.3286" x2="22.0654" y2="14.3149" gradientUnits="userSpaceOnUse">
<stop stop-color="#FFDB69"/>
<stop offset="0.1799" stop-color="#FEE7B0"/>
<stop offset="0.24" stop-color="#FEE9BA"/>
<stop offset="0.2592" stop-color="#FDECD0"/>
<stop offset="0.2953" stop-color="#FEDA92"/>
<stop offset="0.3254" stop-color="#FFCD64"/>
<stop offset="0.3405" stop-color="#FFC853"/>
<stop offset="0.7613" stop-color="#E3C77A"/>
<stop offset="1" stop-color="#FFCD64"/>
</linearGradient>
<linearGradient id="paint3_linear_1765_34491" x1="17.9479" y1="14.7709" x2="17.9479" y2="29.362" gradientUnits="userSpaceOnUse">
<stop stop-color="#FFDB69"/>
<stop offset="0.1799" stop-color="#FEE7B0"/>
<stop offset="0.24" stop-color="#FEE9BA"/>
<stop offset="0.2592" stop-color="#FDECD0"/>
<stop offset="0.2953" stop-color="#FEDA92"/>
<stop offset="0.3254" stop-color="#FFCD64"/>
<stop offset="0.3405" stop-color="#FFC853"/>
<stop offset="0.7613" stop-color="#E3C77A"/>
<stop offset="1" stop-color="#FFCD64"/>
</linearGradient>
<linearGradient id="paint4_linear_1765_34491" x1="12.0361" y1="30.056" x2="12.0361" y2="34.0971" gradientUnits="userSpaceOnUse">
<stop stop-color="#FFDB69"/>
<stop offset="0.1799" stop-color="#FEE7B0"/>
<stop offset="0.24" stop-color="#FEE9BA"/>
<stop offset="0.2592" stop-color="#FDECD0"/>
<stop offset="0.2953" stop-color="#FEDA92"/>
<stop offset="0.3254" stop-color="#FFCD64"/>
<stop offset="0.3405" stop-color="#FFC853"/>
<stop offset="0.7613" stop-color="#E3C77A"/>
<stop offset="1" stop-color="#FFCD64"/>
</linearGradient>
<linearGradient id="paint5_linear_1765_34491" x1="18.9891" y1="32.735" x2="18.9891" y2="45.2444" gradientUnits="userSpaceOnUse">
<stop stop-color="#FFDB69"/>
<stop offset="0.1799" stop-color="#FEE7B0"/>
<stop offset="0.24" stop-color="#FEE9BA"/>
<stop offset="0.2592" stop-color="#FDECD0"/>
<stop offset="0.2953" stop-color="#FEDA92"/>
<stop offset="0.3254" stop-color="#FFCD64"/>
<stop offset="0.3405" stop-color="#FFC853"/>
<stop offset="0.7613" stop-color="#E3C77A"/>
<stop offset="1" stop-color="#FFCD64"/>
</linearGradient>
<linearGradient id="paint6_linear_1765_34491" x1="26.4971" y1="29.8448" x2="26.4971" y2="36.9953" gradientUnits="userSpaceOnUse">
<stop stop-color="#FFDB69"/>
<stop offset="0.1799" stop-color="#FEE7B0"/>
<stop offset="0.24" stop-color="#FEE9BA"/>
<stop offset="0.2592" stop-color="#FDECD0"/>
<stop offset="0.2953" stop-color="#FEDA92"/>
<stop offset="0.3254" stop-color="#FFCD64"/>
<stop offset="0.3405" stop-color="#FFC853"/>
<stop offset="0.7613" stop-color="#E3C77A"/>
<stop offset="1" stop-color="#FFCD64"/>
</linearGradient>
<linearGradient id="paint7_linear_1765_34491" x1="30.0723" y1="40.594" x2="30.0723" y2="43.7034" gradientUnits="userSpaceOnUse">
<stop stop-color="#FFDB69"/>
<stop offset="0.1799" stop-color="#FEE7B0"/>
<stop offset="0.24" stop-color="#FEE9BA"/>
<stop offset="0.2592" stop-color="#FDECD0"/>
<stop offset="0.2953" stop-color="#FEDA92"/>
<stop offset="0.3254" stop-color="#FFCD64"/>
<stop offset="0.3405" stop-color="#FFC853"/>
<stop offset="0.7613" stop-color="#E3C77A"/>
<stop offset="1" stop-color="#FFCD64"/>
</linearGradient>
<linearGradient id="paint8_linear_1765_34491" x1="38.2585" y1="30.0449" x2="38.2585" y2="41.6595" gradientUnits="userSpaceOnUse">
<stop stop-color="#FFDB69"/>
<stop offset="0.1799" stop-color="#FEE7B0"/>
<stop offset="0.24" stop-color="#FEE9BA"/>
<stop offset="0.2592" stop-color="#FDECD0"/>
<stop offset="0.2953" stop-color="#FEDA92"/>
<stop offset="0.3254" stop-color="#FFCD64"/>
<stop offset="0.3405" stop-color="#FFC853"/>
<stop offset="0.7613" stop-color="#E3C77A"/>
<stop offset="1" stop-color="#FFCD64"/>
</linearGradient>
<linearGradient id="paint9_linear_1765_34491" x1="32.4506" y1="20.4123" x2="32.4506" y2="30.0479" gradientUnits="userSpaceOnUse">
<stop stop-color="#FFDB69"/>
<stop offset="0.1799" stop-color="#FEE7B0"/>
<stop offset="0.24" stop-color="#FEE9BA"/>
<stop offset="0.2592" stop-color="#FDECD0"/>
<stop offset="0.2953" stop-color="#FEDA92"/>
<stop offset="0.3254" stop-color="#FFCD64"/>
<stop offset="0.3405" stop-color="#FFC853"/>
<stop offset="0.7613" stop-color="#E3C77A"/>
<stop offset="1" stop-color="#FFCD64"/>
</linearGradient>
<linearGradient id="paint10_linear_1765_34491" x1="29.2956" y1="12.3157" x2="29.2956" y2="20.4146" gradientUnits="userSpaceOnUse">
<stop stop-color="#FFDB69"/>
<stop offset="0.1799" stop-color="#FEE7B0"/>
<stop offset="0.24" stop-color="#FEE9BA"/>
<stop offset="0.2592" stop-color="#FDECD0"/>
<stop offset="0.2953" stop-color="#FEDA92"/>
<stop offset="0.3254" stop-color="#FFCD64"/>
<stop offset="0.3405" stop-color="#FFC853"/>
<stop offset="0.7613" stop-color="#E3C77A"/>
<stop offset="1" stop-color="#FFCD64"/>
</linearGradient>
<linearGradient id="paint11_linear_1765_34491" x1="37.8229" y1="15.7722" x2="37.8229" y2="20.711" gradientUnits="userSpaceOnUse">
<stop stop-color="#FFDB69"/>
<stop offset="0.1799" stop-color="#FEE7B0"/>
<stop offset="0.24" stop-color="#FEE9BA"/>
<stop offset="0.2592" stop-color="#FDECD0"/>
<stop offset="0.2953" stop-color="#FEDA92"/>
<stop offset="0.3254" stop-color="#FFCD64"/>
<stop offset="0.3405" stop-color="#FFC853"/>
<stop offset="0.7613" stop-color="#E3C77A"/>
<stop offset="1" stop-color="#FFCD64"/>
</linearGradient>
<linearGradient id="paint12_linear_1765_34491" x1="40.7077" y1="22.781" x2="40.7077" y2="27.7197" gradientUnits="userSpaceOnUse">
<stop stop-color="#FFDB69"/>
<stop offset="0.1799" stop-color="#FEE7B0"/>
<stop offset="0.24" stop-color="#FEE9BA"/>
<stop offset="0.2592" stop-color="#FDECD0"/>
<stop offset="0.2953" stop-color="#FEDA92"/>
<stop offset="0.3254" stop-color="#FFCD64"/>
<stop offset="0.3405" stop-color="#FFC853"/>
<stop offset="0.7613" stop-color="#E3C77A"/>
<stop offset="1" stop-color="#FFCD64"/>
</linearGradient>
</defs>
</svg>
